<svg height="512pt" viewBox="0 0 512 512" width="512pt" xmlns="http://www.w3.org/2000/svg"><path d="m416 512h-320c-53.023438 0-96-42.976562-96-96v-320c0-53.023438 42.976562-96 96-96h320c53.023438 0 96 42.976562 96 96v320c0 53.023438-42.976562 96-96 96zm0 0" fill="#fff9dd"/><path d="m362.671875 160h-149.328125c-5.886719 0-10.671875-4.785156-10.671875-10.671875s4.785156-10.671875 10.671875-10.671875h149.328125c5.886719 0 10.671875 4.785156 10.671875 10.671875s-4.785156 10.671875-10.671875 10.671875zm0 0" fill="#ffe777"/><path d="m362.671875 213.328125h-213.34375c-5.886719 0-10.671875-4.785156-10.671875-10.671875s4.785156-10.65625 10.671875-10.65625h213.328125c5.886719 0 10.671875 4.785156 10.671875 10.671875s-4.769531 10.65625-10.65625 10.65625zm0 0" fill="#ffd200"/><path d="m362.671875 266.671875h-149.328125c-5.886719 0-10.671875-4.785156-10.671875-10.671875s4.785156-10.671875 10.671875-10.671875h149.328125c5.886719 0 10.671875 4.785156 10.671875 10.671875s-4.785156 10.671875-10.671875 10.671875zm0 0" fill="#ffe777"/><path d="m362.671875 320h-213.34375c-5.886719 0-10.671875-4.785156-10.671875-10.671875s4.785156-10.671875 10.671875-10.671875h213.328125c5.886719 0 10.671875 4.785156 10.671875 10.671875s-4.769531 10.671875-10.65625 10.671875zm0 0" fill="#ffd200"/><path d="m362.671875 373.328125h-149.328125c-5.886719 0-10.671875-4.785156-10.671875-10.671875s4.769531-10.65625 10.65625-10.65625h149.328125c5.886719 0 10.671875 4.785156 10.671875 10.671875s-4.769531 10.65625-10.65625 10.65625zm0 0" fill="#ffe777"/></svg>