<svg height="512pt" viewBox="0 0 512 512" width="512pt" xmlns="http://www.w3.org/2000/svg"><path d="m416 512h-320c-53.023438 0-96-42.976562-96-96v-320c0-53.023438 42.976562-96 96-96h320c53.023438 0 96 42.976562 96 96v320c0 53.023438-42.976562 96-96 96zm0 0" fill="#fff9dd"/><g fill="#ffd200"><path d="m202.671875 362.671875c-5.902344 0-10.671875-4.769531-10.671875-10.671875v-192c0-5.886719 4.785156-10.671875 10.671875-10.671875s10.65625 4.785156 10.65625 10.671875v192c0 5.902344-4.769531 10.671875-10.65625 10.671875zm0 0"/><path d="m274.671875 261.328125h-69.328125c-5.886719 0-10.671875-4.769531-10.671875-10.671875 0-5.886719 4.785156-10.671875 10.671875-10.671875h69.328125c19.121094 0 34.671875-15.550781 34.671875-34.671875s-15.550781-34.671875-34.671875-34.671875h-93.328125c-5.886719 0-10.671875-4.769531-10.671875-10.671875 0-5.890625 4.785156-10.671875 10.671875-10.671875h93.328125c30.878906 0 56 25.117187 56 56 0 30.878906-25.121094 56.03125-56 56.03125zm0 0"/><path d="m280 362.671875h-98.671875c-5.886719 0-10.671875-4.769531-10.671875-10.671875 0-5.886719 4.785156-10.671875 10.671875-10.671875h98.671875c22.0625 0 40-17.953125 40-40s-17.9375-40-40-40h-74.671875c-5.886719 0-10.671875-4.769531-10.671875-10.671875 0-5.886719 4.785156-10.671875 10.671875-10.671875h74.671875c33.824219 0 61.328125 27.503906 61.328125 61.328125s-27.503906 61.359375-61.328125 61.359375zm0 0"/></g></svg>