<svg height="512pt" viewBox="0 0 512 512" width="512pt" xmlns="http://www.w3.org/2000/svg"><path d="m416 512h-320c-53.023438 0-96-42.976562-96-96v-320c0-53.023438 42.976562-96 96-96h320c53.023438 0 96 42.976562 96 96v320c0 53.023438-42.976562 96-96 96zm0 0" fill="#fff9dd"/><g fill="#ffe777"><path d="m162.671875 192h-26.671875c-4.414062 0-8-3.585938-8-8v-26.671875c0-4.417969 3.585938-8 8-8h26.671875c4.417969 0 8 3.582031 8 8v26.671875c0 4.414062-3.582031 8-8 8zm0 0"/><path d="m162.671875 277.328125h-26.671875c-4.414062 0-8-3.585937-8-8v-26.671875c0-4.417969 3.585938-8 8-8h26.671875c4.417969 0 8 3.582031 8 8v26.671875c0 4.414063-3.582031 8-8 8zm0 0"/><path d="m162.671875 362.671875h-26.671875c-4.414062 0-8-3.582031-8-8v-26.671875c0-4.414062 3.585938-8 8-8h26.671875c4.417969 0 8 3.585938 8 8v26.671875c0 4.417969-3.582031 8-8 8zm0 0"/></g><path d="m373.328125 181.328125h-160c-5.886719 0-10.671875-4.769531-10.671875-10.671875s4.785156-10.65625 10.671875-10.65625h160c5.902344 0 10.671875 4.769531 10.671875 10.671875s-4.769531 10.65625-10.671875 10.65625zm0 0" fill="#ffd200"/><path d="m373.328125 266.671875h-160c-5.886719 0-10.671875-4.769531-10.671875-10.671875 0-5.886719 4.769531-10.671875 10.671875-10.671875h160c5.902344 0 10.671875 4.769531 10.671875 10.671875 0 5.886719-4.769531 10.671875-10.671875 10.671875zm0 0" fill="#ffd200"/><path d="m373.328125 352h-160c-5.886719 0-10.671875-4.769531-10.671875-10.671875 0-5.886719 4.769531-10.671875 10.671875-10.671875h160c5.886719 0 10.671875 4.769531 10.671875 10.671875s-4.769531 10.671875-10.671875 10.671875zm0 0" fill="#ffd200"/></svg>