<svg height="512pt" viewBox="0 0 512 512" width="512pt" xmlns="http://www.w3.org/2000/svg"><path d="m416 512h-320c-53.023438 0-96-42.976562-96-96v-320c0-53.023438 42.976562-96 96-96h320c53.023438 0 96 42.976562 96 96v320c0 53.023438-42.976562 96-96 96zm0 0" fill="#e3f8fa"/><g fill="#8ce1eb"><path d="m176 288h-26.65625c-4.414062 0-8-3.585938-8-8v-13.328125c0-10.289063 8.367188-18.671875 18.671875-18.671875h5.328125c1.472656 0 2.671875-1.199219 2.671875-2.671875v-2.671875c0-1.472656-1.199219-2.671875-2.671875-2.671875h-16c-4.414062 0-8-3.585937-8-8 0-4.417969 3.585938-8 8-8h16c10.289062 0 18.671875 8.367187 18.671875 18.671875v2.671875c0 10.289063-8.367187 18.671875-18.671875 18.671875h-5.34375c-1.472656 0-2.671875 1.199219-2.671875 2.671875v5.328125h18.671875c4.414062 0 8 3.585938 8 8s-3.585938 8-8 8zm0 0"/><path d="m165.34375 349.328125h-10.671875c-4.414063 0-8-3.585937-8-8 0-4.417969 3.585937-8 8-8h10.671875c1.472656 0 2.671875-1.199219 2.671875-2.671875v-2.65625c0-1.472656-1.199219-2.671875-2.671875-2.671875h-16c-4.414062 0-8-3.585937-8-8 0-4.417969 3.585938-8 8-8h16c10.289062 0 18.671875 8.367187 18.671875 18.671875v2.671875c-.015625 10.289063-8.382813 18.65625-18.671875 18.65625zm0 0"/><path d="m165.34375 373.328125h-16c-4.414062 0-8-3.585937-8-8 0-4.417969 3.585938-8 8-8h16c1.472656 0 2.671875-1.199219 2.671875-2.671875v-2.65625c0-1.472656-1.199219-2.671875-2.671875-2.671875h-10.671875c-4.414063 0-8-3.585937-8-8 0-4.417969 3.585937-8 8-8h10.671875c10.289062 0 18.671875 8.367187 18.671875 18.671875v2.671875c-.015625 10.289063-8.382813 18.65625-18.671875 18.65625zm0 0"/><path d="m165.34375 202.671875c-4.414062 0-8-3.582031-8-8v-40h-8c-4.414062 0-8-3.582031-8-8 0-4.414063 3.585938-8 8-8h16c4.417969 0 8 3.585937 8 8v48c0 4.417969-3.582031 8-8 8zm0 0"/></g><path d="m376 181.328125h-160c-5.886719 0-10.671875-4.769531-10.671875-10.671875s4.785156-10.65625 10.671875-10.65625h160c5.886719 0 10.671875 4.769531 10.671875 10.671875s-4.769531 10.65625-10.671875 10.65625zm0 0" fill="#26c6da"/><path d="m376 266.671875h-160c-5.886719 0-10.671875-4.769531-10.671875-10.671875 0-5.886719 4.769531-10.671875 10.671875-10.671875h160c5.886719 0 10.671875 4.769531 10.671875 10.671875 0 5.886719-4.769531 10.671875-10.671875 10.671875zm0 0" fill="#26c6da"/><path d="m376 352h-160c-5.886719 0-10.671875-4.769531-10.671875-10.671875 0-5.886719 4.769531-10.671875 10.671875-10.671875h160c5.886719 0 10.671875 4.769531 10.671875 10.671875s-4.769531 10.671875-10.671875 10.671875zm0 0" fill="#26c6da"/></svg>