<svg height="512pt" viewBox="0 0 512 512" width="512pt" xmlns="http://www.w3.org/2000/svg"><path d="m416 512h-320c-53.023438 0-96-42.976562-96-96v-320c0-53.023438 42.976562-96 96-96h320c53.023438 0 96 42.976562 96 96v320c0 53.023438-42.976562 96-96 96zm0 0" fill="#ffe6e2"/><path d="m416 512h-320c-53.023438 0-96-42.976562-96-96v-320c0-53.023438 42.976562-96 96-96h320c53.023438 0 96 42.976562 96 96v320c0 53.023438-42.976562 96-96 96zm0 0" fill="#ffe6e2"/><path d="m364.847656 250.480469c6.082032-6.082031 9.425782-14.097657 9.425782-22.578125 0-8.558594-3.34375-16.605469-9.425782-22.6875l-52.289062-52.285156c-11.917969-12.210938-33.535156-12.226563-45.359375-.097657l-109.230469 109.246094c-6.128906 5.984375-9.503906 14.082031-9.503906 22.785156 0 8.640625 3.375 16.6875 9.421875 22.578125l19.984375 19.984375h-16.0625c-5.886719 0-10.671875 4.78125-10.671875 10.671875 0 5.886719 4.785156 10.671875 10.671875 10.671875h192c5.886718 0 10.671875-4.785156 10.671875-10.671875 0-5.890625-4.785157-10.671875-10.671875-10.671875h-65.871094zm-82.464844-82.65625c2.480469-2.542969 5.394532-3.070313 7.410157-3.070313 2.0625 0 5.023437.527344 7.597656 3.167969l52.371094 52.367187c2.046875 2.046876 3.167969 4.75 3.167969 7.597657 0 2.785156-1.121094 5.457031-3.167969 7.503906l-32.019531 32.015625-67.46875-67.484375zm0 0" fill="#fc573b"/></svg>