<svg height="512pt" viewBox="0 0 512 512" width="512pt" xmlns="http://www.w3.org/2000/svg"><path d="m416 512h-320c-53.023438 0-96-42.976562-96-96v-320c0-53.023438 42.976562-96 96-96h320c53.023438 0 96 42.976562 96 96v320c0 53.023438-42.976562 96-96 96zm0 0" fill="#ffe6e2"/><path d="m232 336c-24.992188 0-45.328125-20.335938-45.328125-45.328125v-109.328125h-18.671875c-16.175781 0-29.328125 13.152344-29.328125 29.328125v144c0 16.175781 13.152344 29.328125 29.328125 29.328125h133.328125c16.175781 0 29.328125-13.152344 29.328125-29.328125v-18.671875zm0 0" fill="#fd907e"/><path d="m232 128c-16.207031 0-29.328125 13.136719-29.328125 29.328125v133.328125c0 16.207031 13.136719 29.328125 29.328125 29.328125h112c16.207031 0 29.328125-13.136719 29.328125-29.328125v-130.65625c0-17.679688-14.320313-32-32-32zm0 0" fill="#fc573b"/></svg>