<svg height="512pt" viewBox="0 0 512 512" width="512pt" xmlns="http://www.w3.org/2000/svg"><path d="m416 512h-320c-53.023438 0-96-42.976562-96-96v-320c0-53.023438 42.976562-96 96-96h320c53.023438 0 96 42.976562 96 96v320c0 53.023438-42.976562 96-96 96zm0 0" fill="#fff9dd"/><path d="m170.671875 138.65625c-23.535156 0-42.671875 19.136719-42.671875 42.671875 0 15.726563 8.640625 29.328125 21.328125 36.734375.207031.144531.304687.402344.527344.53125l56.816406 31.804688c.785156 4.847656 4.128906 19.875 16.527344 34.738281 12.847656 15.421875 53.105469 37.742187 82.496093 54.046875l9.503907 5.296875c26.242187 14.671875 51.824219 13.472656 66.769531-3.121094 1.632812-1.808594 2.351562-4.304687 1.933594-6.65625-.398438-2.398437-1.855469-4.496094-3.980469-5.679687l-193.28125-108.175782c15.632813-6.335937 26.703125-21.632812 26.703125-39.503906-.015625-23.550781-19.152344-42.6875-42.671875-42.6875zm0 21.34375c11.761719 0 21.328125 9.566406 21.328125 21.328125s-9.566406 21.328125-21.328125 21.328125-21.328125-9.566406-21.328125-21.328125c-.015625-11.761719 9.550781-21.328125 21.328125-21.328125zm0 0" fill="#ffe777"/><path d="m213.328125 330.671875c0-17.871094-11.070313-33.167969-26.703125-39.503906l193.277344-108.175781c2.128906-1.183594 3.585937-3.265626 3.984375-5.679688.417969-2.351562-.320313-4.847656-1.933594-6.65625-14.945313-16.59375-40.527344-17.792969-66.769531-3.121094l-9.503906 5.296875c-29.390626 16.304688-69.632813 38.625-82.496094 54.046875-12.382813 14.882813-15.726563 29.890625-16.527344 34.738282l-56.816406 31.808593c-.222656.125-.320313.367188-.527344.527344-12.671875 7.390625-21.3125 20.992187-21.3125 36.71875 0 23.535156 19.136719 42.671875 42.671875 42.671875s42.65625-19.152344 42.65625-42.671875zm-64 0c0-11.761719 9.566406-21.328125 21.328125-21.328125 11.757812 0 21.328125 9.566406 21.328125 21.328125.015625 11.761719-9.550781 21.328125-21.3125 21.328125-11.777344 0-21.34375-9.566406-21.34375-21.328125zm0 0" fill="#ffd200"/></svg>