<svg height="512pt" viewBox="0 0 512 512" width="512pt" xmlns="http://www.w3.org/2000/svg"><path d="m416 512h-320c-53.023438 0-96-42.976562-96-96v-320c0-53.023438 42.976562-96 96-96h320c53.023438 0 96 42.976562 96 96v320c0 53.023438-42.976562 96-96 96zm0 0" fill="#fff9dd"/><path d="m356 358h-192c-5.886719 0-10.671875-4.785156-10.671875-10.671875s4.769531-10.671875 10.671875-10.671875h192c5.886719 0 10.671875 4.785156 10.671875 10.671875s-4.785156 10.671875-10.671875 10.671875zm0 0" fill="#ffe777"/><path d="m373.28125 159.953125-24.5625-24.5625c-11.871094-11.886719-31.070312-12.511719-43.679688-1.488281l-100.335937 87.121094c-2.238281 1.9375-3.566406 4.71875-3.664063 7.679687-.0625 1.921875.546876 3.695313 1.441407 5.34375l-16.671875 28.976563c-2.402344 4.175781-1.710938 9.457031 1.695312 12.863281l3.742188 3.746093-28.09375 28.191407c-3.039063 3.054687-3.953125 7.648437-2.304688 11.617187 1.664063 3.984375 5.535156 6.574219 9.855469 6.574219h42.671875c2.496094 0 4.898438-.863281 6.816406-2.464844l8.191406-6.796875 4.402344 4.398438c2.046875 2.0625 4.78125 3.121094 7.550782 3.121094 1.824218 0 3.648437-.464844 5.3125-1.425782l28.960937-16.65625c1.550781.832032 3.214844 1.425782 5.007813 1.425782h.367187c2.960937-.113282 5.742187-1.441407 7.679687-3.664063l87.089844-100.304687c11.054688-12.640626 10.414063-31.824219-1.472656-43.695313zm-131.203125 140.335937-28.175781-28.175781c-.015625-.015625-.015625-.035156-.03125-.050781s-.03125-.015625-.046875-.03125l-5.441407-5.4375 9.410157-16.355469 40.65625 40.65625zm0 0" fill="#ffd200"/></svg>