<svg height="512pt" viewBox="0 0 512 512" width="512pt" xmlns="http://www.w3.org/2000/svg"><path d="m416 512h-320c-53.023438 0-96-42.976562-96-96v-320c0-53.023438 42.976562-96 96-96h320c53.023438 0 96 42.976562 96 96v320c0 53.023438-42.976562 96-96 96zm0 0" fill="#fff9dd"/><path d="m202.65625 362.65625c-5.886719 0-10.65625-4.769531-10.65625-10.65625v-192c0-5.886719 4.769531-10.671875 10.671875-10.671875s10.65625 4.769531 10.65625 10.671875v192c0 5.886719-4.769531 10.65625-10.671875 10.65625zm0 0" fill="#ffe777"/><path d="m266.65625 192c-5.886719 0-10.65625-4.785156-10.65625-10.671875v-10.671875h-106.671875v10.671875c0 5.886719-4.769531 10.671875-10.671875 10.671875s-10.65625-4.785156-10.65625-10.671875v-21.328125c0-5.886719 4.769531-10.671875 10.671875-10.671875h128c5.886719 0 10.671875 4.769531 10.671875 10.671875v21.328125c-.015625 5.886719-4.785156 10.671875-10.6875 10.671875zm0 0" fill="#ffe777"/><path d="m224 362.65625h-42.671875c-5.886719 0-10.671875-4.769531-10.671875-10.671875 0-5.90625 4.769531-10.671875 10.671875-10.671875h42.671875c5.886719 0 10.671875 4.765625 10.671875 10.671875 0 5.902344-4.785156 10.671875-10.671875 10.671875zm0 0" fill="#ffe777"/><g fill="#ffd200"><path d="m341.328125 346.65625c-5.886719 0-10.671875-4.769531-10.671875-10.671875v-170.65625c0-5.886719 4.769531-10.671875 10.671875-10.671875 5.886719 0 10.671875 4.769531 10.671875 10.671875v170.671875c0 5.886719-4.785156 10.65625-10.671875 10.65625zm0 0"/><path d="m306.671875 194.671875 34.65625-37.34375 34.671875 37.34375zm0 0"/><path d="m376 202.65625h-69.328125c-3.183594 0-6.0625-1.886719-7.328125-4.800781-1.265625-2.910157-.703125-6.320313 1.472656-8.640625l34.671875-37.328125c3.039063-3.246094 8.6875-3.246094 11.726563 0l34.671875 37.328125c2.160156 2.335937 2.738281 5.730468 1.472656 8.640625-1.261719 2.914062-4.191406 4.800781-7.359375 4.800781zm-50.992188-16h32.640626l-16.320313-17.566406zm0 0"/><path d="m306.671875 317.328125 34.65625 37.34375 34.671875-37.34375zm0 0"/><path d="m341.328125 362.65625c-2.222656 0-4.335937-.929688-5.871094-2.558594l-34.65625-37.3125c-2.160156-2.335937-2.738281-5.730468-1.472656-8.640625 1.265625-2.914062 4.160156-4.800781 7.328125-4.800781h69.34375c3.183594 0 6.0625 1.886719 7.328125 4.800781 1.265625 2.910157.703125 6.320313-1.472656 8.640625l-34.671875 37.328125c-1.519532 1.613281-3.632813 2.542969-5.855469 2.542969zm-16.320313-37.328125 16.320313 17.566406 16.320313-17.566406zm0 0"/></g></svg>