<svg height="512pt" viewBox="0 0 512 512" width="512pt" xmlns="http://www.w3.org/2000/svg"><path d="m416 512h-320c-53.023438 0-96-42.976562-96-96v-320c0-53.023438 42.976562-96 96-96h320c53.023438 0 96 42.976562 96 96v320c0 53.023438-42.976562 96-96 96zm0 0" fill="#f5e6fe"/><g fill="#be63f9"><path d="m245.34375 362.671875h-32c-5.886719 0-10.671875-4.769531-10.671875-10.671875 0-5.886719 4.785156-10.671875 10.671875-10.671875h32c5.886719 0 10.65625 4.785156 10.65625 10.671875 0 5.902344-4.769531 10.671875-10.65625 10.671875zm0 0"/><path d="m298.671875 170.671875h-32c-5.886719 0-10.671875-4.769531-10.671875-10.671875 0-5.886719 4.785156-10.671875 10.671875-10.671875h32c5.886719 0 10.671875 4.769531 10.671875 10.671875s-4.785156 10.671875-10.671875 10.671875zm0 0"/><path d="m229.34375 362.671875c-.945312 0-1.902344-.128906-2.863281-.382813-5.679688-1.585937-9.007813-7.457031-7.425781-13.136718l53.328124-192c1.585938-5.664063 7.472657-8.976563 13.136719-7.425782 5.679688 1.585938 9.007813 7.457032 7.425781 13.136719l-53.328124 192c-1.3125 4.703125-5.601563 7.808594-10.273438 7.808594zm0 0"/></g></svg>