<svg height="512pt" viewBox="0 0 512 512" width="512pt" xmlns="http://www.w3.org/2000/svg"><path d="m416 512h-320c-53.023438 0-96-42.976562-96-96v-320c0-53.023438 42.976562-96 96-96h320c53.023438 0 96 42.976562 96 96v320c0 53.023438-42.976562 96-96 96zm0 0" fill="#fff9dd"/><path d="m349.328125 160h-213.328125c-5.886719 0-10.671875-4.785156-10.671875-10.671875s4.785156-10.65625 10.671875-10.65625h213.328125c5.886719 0 10.671875 4.785156 10.671875 10.671875s-4.769531 10.65625-10.671875 10.65625zm0 0" fill="#ffe777"/><path d="m242.671875 213.328125h-106.671875c-5.886719 0-10.671875-4.785156-10.671875-10.671875s4.785156-10.65625 10.671875-10.65625h106.671875c5.886719 0 10.671875 4.785156 10.671875 10.671875s-4.785156 10.65625-10.671875 10.65625zm0 0" fill="#ffd200"/><path d="m242.671875 266.671875h-106.671875c-5.886719 0-10.671875-4.785156-10.671875-10.671875s4.785156-10.671875 10.671875-10.671875h106.671875c5.886719 0 10.671875 4.785156 10.671875 10.671875s-4.785156 10.671875-10.671875 10.671875zm0 0" fill="#ffe777"/><path d="m242.671875 320h-106.671875c-5.886719 0-10.671875-4.785156-10.671875-10.671875s4.785156-10.671875 10.671875-10.671875h106.671875c5.886719 0 10.671875 4.785156 10.671875 10.671875s-4.785156 10.671875-10.671875 10.671875zm0 0" fill="#ffd200"/><path d="m349.328125 373.328125h-213.328125c-5.886719 0-10.671875-4.785156-10.671875-10.671875s4.785156-10.65625 10.671875-10.65625h213.328125c5.886719 0 10.671875 4.785156 10.671875 10.671875s-4.769531 10.65625-10.671875 10.65625zm0 0" fill="#ffe777"/><path d="m277.214844 250.128906 37.328125-34.671875c2.335937-2.160156 5.730469-2.722656 8.640625-1.472656 2.914062 1.261719 4.800781 4.144531 4.800781 7.328125v24h32c5.886719 0 10.671875 4.785156 10.671875 10.671875s-4.769531 10.671875-10.671875 10.671875h-32v24c0 3.183594-1.886719 6.0625-4.800781 7.328125-1.023438.449219-2.113282.671875-3.199219.671875-1.984375 0-3.9375-.734375-5.441406-2.128906l-37.328125-34.671875c-1.628906-1.519531-2.558594-3.648438-2.558594-5.871094s.945312-4.335937 2.558594-5.855469zm0 0" fill="#ffd200"/></svg>