<svg height="512pt" viewBox="0 0 512 512" width="512pt" xmlns="http://www.w3.org/2000/svg"><path d="m416 512h-320c-53.023438 0-96-42.976562-96-96v-320c0-53.023438 42.976562-96 96-96h320c53.023438 0 96 42.976562 96 96v320c0 53.023438-42.976562 96-96 96zm0 0" fill="#e3f8fa"/><path d="m354.671875 245.328125h-69.328125c-16.175781 0-29.328125 13.152344-29.328125 29.328125v80c-.015625 16.191406 13.136719 29.34375 29.3125 29.34375h69.328125c16.191406 0 29.34375-13.152344 29.34375-29.328125v-80c0-16.175781-13.152344-29.34375-29.328125-29.34375zm-10.671875 109.34375h-48c-4.414062 0-8-3.582031-8-8 0-4.414063 3.585938-8 8-8h48c4.414062 0 8 3.585937 8 8 0 4.417969-3.585938 8-8 8zm0-32h-48c-4.414062 0-8-3.582031-8-8 0-4.414063 3.585938-8 8-8h48c4.414062 0 8 3.585937 8 8 0 4.417969-3.585938 8-8 8zm0-32h-48c-4.414062 0-8-3.582031-8-8 0-4.414063 3.585938-8 8-8h48c4.414062 0 8 3.585937 8 8 0 4.417969-3.585938 8-8 8zm0 0" fill="#8ce1eb"/><path d="m253.328125 128h-58.671875c-7.359375 0-13.328125 5.984375-13.328125 13.328125v26.671875c0 7.359375 5.984375 13.328125 13.328125 13.328125h58.671875c7.359375 0 13.328125-5.984375 13.328125-13.328125v-26.671875c.015625-7.34375-5.96875-13.328125-13.328125-13.328125zm0 0" fill="#8ce1eb"/><path d="m240 274.671875c0-24.992187 20.335938-45.328125 45.328125-45.328125h34.671875v-50.671875c0-16.175781-13.152344-29.328125-29.328125-29.328125h-8v18.65625c0 16.175781-13.152344 29.328125-29.328125 29.328125h-58.671875c-16.175781 0-29.328125-13.152344-29.328125-29.328125v-18.671875h-8c-16.191406 0-29.34375 13.167969-29.34375 29.34375v133.328125c0 16.175781 13.152344 29.328125 29.328125 29.328125h82.671875zm0 0" fill="#26c6da"/></svg>