<svg height="512pt" viewBox="0 0 512 512" width="512pt" xmlns="http://www.w3.org/2000/svg"><path d="m416 512h-320c-53.023438 0-96-42.976562-96-96v-320c0-53.023438 42.976562-96 96-96h320c53.023438 0 96 42.976562 96 96v320c0 53.023438-42.976562 96-96 96zm0 0" fill="#e3f8fa"/><path d="m309.328125 128h-106.671875c-17.679688 0-32 14.320312-32 32v42.671875c0 5.886719 4.769531 10.671875 10.671875 10.671875s10.671875-4.785156 10.671875-10.671875v-42.671875c0-5.886719 4.769531-10.671875 10.671875-10.671875h107.726563c5.296874 0 9.601562 4.304687 9.601562 9.601563v43.726562c0 5.886719 4.769531 10.671875 10.671875 10.671875s10.671875-4.785156 10.671875-10.671875v-42.65625c-.015625-17.679688-14.335938-32-32.015625-32zm0 0" fill="#8ce1eb"/><path d="m354.671875 192h-197.34375c-16.207031 0-29.328125 13.121094-29.328125 29.328125v69.328125c0 16.222656 13.121094 29.34375 29.328125 29.34375h34.671875v-32h128v32h34.671875c16.207031 0 29.328125-13.121094 29.328125-29.328125v-69.328125c0-16.222656-13.121094-29.34375-29.328125-29.34375zm0 0" fill="#26c6da"/><path d="m309.328125 384h-106.671875c-17.648438 0-32-14.351562-32-32v-74.671875c0-5.886719 4.769531-10.671875 10.671875-10.671875h149.328125c5.886719 0 10.671875 4.785156 10.671875 10.671875v74.671875c0 17.648438-14.351563 32-32 32zm0 0" fill="#8ce1eb"/><g fill="#26c6da"><path d="m290.671875 320h-69.328125c-4.414062 0-8-3.585938-8-8s3.585938-8 8-8h69.328125c4.417969 0 8 3.585938 8 8s-3.582031 8-8 8zm0 0"/><path d="m290.671875 352h-69.328125c-4.414062 0-8-3.585938-8-8s3.585938-8 8-8h69.328125c4.417969 0 8 3.585938 8 8s-3.582031 8-8 8zm0 0"/></g></svg>