<svg height="512pt" viewBox="0 0 512 512" width="512pt" xmlns="http://www.w3.org/2000/svg"><path d="m416 512h-320c-53.023438 0-96-42.976562-96-96v-320c0-53.023438 42.976562-96 96-96h320c53.023438 0 96 42.976562 96 96v320c0 53.023438-42.976562 96-96 96zm0 0" fill="#e3f8fa"/><path d="m336 170.671875h-32c-14.703125 0-26.671875 11.96875-26.671875 26.671875v32c0 14.6875 11.96875 26.65625 26.671875 26.65625h32c1.824219 0 3.617188-.191406 5.328125-.542969v21.871094c0 23.519531-19.136719 42.671875-42.671875 42.671875h-10.65625c-5.886719 0-10.671875 4.785156-10.671875 10.671875s4.769531 10.671875 10.671875 10.671875h10.671875c35.296875 0 64-28.703125 64-64v-80c-.015625-14.703125-11.96875-26.671875-26.671875-26.671875zm0 0" fill="#26c6da"/><path d="m208 170.671875h-32c-14.703125 0-26.671875 11.96875-26.671875 26.671875v32c0 14.6875 11.953125 26.65625 26.671875 26.65625h32c1.824219 0 3.617188-.191406 5.328125-.542969v21.871094c0 23.519531-19.136719 42.671875-42.671875 42.671875h-10.65625c-5.886719 0-10.671875 4.785156-10.671875 10.671875s4.769531 10.671875 10.671875 10.671875h10.671875c35.296875 0 64-28.703125 64-64v-80c-.015625-14.703125-11.96875-26.671875-26.671875-26.671875zm0 0" fill="#8ce1eb"/></svg>