<svg height="512pt" viewBox="0 0 512 512" width="512pt" xmlns="http://www.w3.org/2000/svg"><path d="m416 512h-320c-53.023438 0-96-42.976562-96-96v-320c0-53.023438 42.976562-96 96-96h320c53.023438 0 96 42.976562 96 96v320c0 53.023438-42.976562 96-96 96zm0 0" fill="#f5e6fe"/><g fill="#be63f9"><path d="m376 136v69.328125h-69.328125zm0 0"/><path d="m376 213.328125h-69.328125c-3.230469 0-6.160156-1.953125-7.390625-4.945313-1.234375-2.992187-.5625-6.429687 1.742188-8.71875l69.328124-69.328124c2.289063-2.289063 5.746094-2.960938 8.71875-1.742188 2.976563 1.246094 4.929688 4.175781 4.929688 7.40625v69.328125c0 4.414063-3.585938 8-8 8zm-50.015625-16h42.015625v-42.015625zm0 0"/><path d="m256 384c-70.574219 0-128-57.425781-128-128s57.425781-128 128-128c43.710938 0 85.953125 22.160156 110.222656 57.855469 3.3125 4.878906 2.050782 11.503906-2.816406 14.816406-4.878906 3.328125-11.503906 2.03125-14.8125-2.816406-20.355469-29.917969-55.839844-48.527344-92.578125-48.527344-58.816406 0-106.671875 47.855469-106.671875 106.671875s47.855469 106.671875 106.671875 106.671875c28.464844 0 55.25-11.105469 75.410156-31.265625 4.160157-4.160156 10.910157-4.160156 15.085938 0 4.160156 4.160156 4.160156 10.914062 0 15.089844-24.207031 24.175781-56.351563 37.503906-90.511719 37.503906zm0 0"/></g></svg>