<svg height="512pt" viewBox="0 0 512 512" width="512pt" xmlns="http://www.w3.org/2000/svg"><path d="m416 512h-320c-53.023438 0-96-42.976562-96-96v-320c0-53.023438 42.976562-96 96-96h320c53.023438 0 96 42.976562 96 96v320c0 53.023438-42.976562 96-96 96zm0 0" fill="#fff9dd"/><path d="m381.359375 242.640625c-20.816406-50.207031-70.015625-82.640625-125.359375-82.640625s-104.542969 32.433594-125.359375 82.640625c-3.519531 8.496094-3.519531 18.238281 0 26.734375 20.816406 50.191406 70.015625 82.625 125.359375 82.625s104.542969-32.433594 125.359375-82.640625c3.503906-8.496094 3.503906-18.222656 0-26.71875zm0 0" fill="#ffd200"/><path d="m298.671875 256c0 23.566406-19.105469 42.671875-42.671875 42.671875s-42.671875-19.105469-42.671875-42.671875 19.105469-42.671875 42.671875-42.671875 42.671875 19.105469 42.671875 42.671875zm0 0" fill="#fff9dd"/></svg>