<svg height="512pt" viewBox="0 0 512 512" width="512pt" xmlns="http://www.w3.org/2000/svg"><path d="m416 512h-320c-53.023438 0-96-42.976562-96-96v-320c0-53.023438 42.976562-96 96-96h320c53.023438 0 96 42.976562 96 96v320c0 53.023438-42.976562 96-96 96zm0 0" fill="#ffe6e2"/><g fill="#fc573b"><path d="m256 330.671875c-41.167969 0-74.671875-33.503906-74.671875-74.671875v-96c0-5.886719 4.785156-10.671875 10.671875-10.671875s10.671875 4.785156 10.671875 10.671875v96c0 29.40625 23.921875 53.328125 53.328125 53.328125s53.328125-23.921875 53.328125-53.328125v-96c0-5.886719 4.785156-10.671875 10.671875-10.671875s10.671875 4.785156 10.671875 10.671875v96c0 41.167969-33.503906 74.671875-74.671875 74.671875zm0 0"/><path d="m213.328125 170.671875h-42.671875c-5.886719 0-10.65625-4.769531-10.65625-10.671875 0-5.886719 4.785156-10.671875 10.671875-10.671875h42.671875c5.871094 0 10.65625 4.785156 10.65625 10.671875 0 5.902344-4.785156 10.671875-10.671875 10.671875zm0 0"/><path d="m341.328125 170.671875h-42.671875c-5.886719 0-10.65625-4.769531-10.65625-10.671875 0-5.886719 4.785156-10.671875 10.671875-10.671875h42.671875c5.871094 0 10.65625 4.785156 10.65625 10.671875 0 5.902344-4.785156 10.671875-10.671875 10.671875zm0 0"/></g><path d="m330.671875 362.671875h-149.328125c-5.886719 0-10.671875-4.769531-10.671875-10.671875 0-5.886719 4.785156-10.671875 10.671875-10.671875h149.328125c5.886719 0 10.671875 4.769531 10.671875 10.671875-.015625 5.902344-4.785156 10.671875-10.671875 10.671875zm0 0" fill="#fd907e"/></svg>