<?xml version="1.0" encoding="iso-8859-1"?>
<!-- Generator: Adobe Illustrator 19.0.0, SVG Export Plug-In . SVG Version: 6.00 Build 0)  -->
<svg version="1.1" id="Layer_1" xmlns="http://www.w3.org/2000/svg" xmlns:xlink="http://www.w3.org/1999/xlink" x="0px" y="0px"
	 viewBox="0 0 512 512" style="enable-background:new 0 0 512 512;" xml:space="preserve">

	<path style="fill:#778a8a;" d="M256,0C114.509,0,0,114.497,0,256c0,141.491,114.497,256,256,256c141.491,0,256-114.497,256-256
		C512,114.509,397.503,0,256,0z M256,472.922c-119.611,0-216.922-97.311-216.922-216.922S136.389,39.078,256,39.078
		S472.922,136.389,472.922,256S375.611,472.922,256,472.922z"/>

	<path style="fill:#778a8a;" d="M333.695,256l25.148-25.149c21.421-21.42,21.421-56.275,0-77.694c-21.468-21.471-56.222-21.474-77.694,0L256,178.305
		l-25.149-25.148c-21.468-21.471-56.222-21.474-77.694,0c-21.421,21.42-21.421,56.273,0,77.694L178.305,256l-25.148,25.149
		c-21.421,21.42-21.421,56.273,0,77.694c21.468,21.471,56.218,21.474,77.694,0L256,333.695l25.151,25.149
		c21.471,21.468,56.221,21.473,77.693-0.001c21.421-21.42,21.421-56.273,0-77.694L333.695,256z M331.212,331.212
		c-6.2,6.198-16.231,6.198-22.431,0l-38.965-38.965c-3.815-3.815-8.816-5.723-13.816-5.723c-5,0-10.001,1.908-13.816,5.723
		l-38.964,38.964c-6.2,6.198-16.23,6.201-22.432,0.001c-6.183-6.184-6.183-16.246,0-22.431l38.965-38.965
		c3.664-3.663,5.723-8.633,5.723-13.816c0-5.183-2.059-10.152-5.723-13.816l-38.965-38.965c-6.183-6.184-6.183-16.246,0-22.431
		c6.2-6.198,16.231-6.198,22.431,0l38.965,38.965c7.63,7.63,20.001,7.63,27.632,0l38.965-38.965c6.2-6.198,16.231-6.198,22.431,0
		c6.184,6.184,6.184,16.246,0,22.431l-38.965,38.965c-3.664,3.663-5.723,8.633-5.723,13.816c0,5.183,2.059,10.152,5.723,13.816
		l38.965,38.965C337.395,314.965,337.395,325.027,331.212,331.212z"/>

</svg>
