<?xml version="1.0" encoding="iso-8859-1"?>
<!-- Generator: Adobe Illustrator 18.1.1, SVG Export Plug-In . SVG Version: 6.00 Build 0)  -->
<svg version="1.1" xmlns="http://www.w3.org/2000/svg" xmlns:xlink="http://www.w3.org/1999/xlink" x="0px" y="0px"
	 viewBox="0 0 30.19 30.19" style="enable-background:new 0 0 30.19 30.19;" xml:space="preserve">

	<path style="fill:#778a8a;" d="M23.824,1.904h-4.805v1.947h3.896c0.537,0,0.97,0.435,0.97,0.972v5.589v4.081v12.779c0,0.535-0.433,0.972-0.97,0.972
		h-9.86h-0.802H7.28c-0.54,0-0.977-0.437-0.977-0.972V4.823c0-0.537,0.437-0.972,0.977-0.972h3.953V1.904h-4.93
		c-1.073,0-1.947,0.869-1.947,1.948v24.393c0,1.076,0.874,1.945,1.947,1.945h4.726h4.145h8.65c1.076,0,2.01-0.869,2.01-1.945
		V13.122v-2.156V3.852C25.834,2.773,24.9,1.904,23.824,1.904z"/>
	<path style="fill:#778a8a;" d="M10.546,4.962c-0.416,0-0.756,0.232-0.756,0.515c0,0.285,0,1.034,0,1.034h10.606c0,0,0-0.749,0-1.034
		c0-0.282-0.34-0.515-0.752-0.515h-2.265v-4.22c-2.319-1.65-4.58-0.033-4.58-0.033l0.01,4.253H10.546z"/>
	<path style="fill:#778a8a;" d="M22.329,13.781l-7.834,7.83c-0.196,0.197-0.517,0.197-0.711,0l-0.158-0.156l0,0l-0.172-0.17l-0.737-0.74l-0.012-0.018
		l-3.389-3.41c-0.194-0.198-0.194-0.517,0-0.713l1.068-1.066c0.198-0.198,0.517-0.198,0.714,0l3.046,3.068L20.548,12
		c0.197-0.196,0.516-0.196,0.712,0l1.068,1.069C22.524,13.264,22.524,13.584,22.329,13.781z"/>

</svg>
